<svg width="39" height="25" viewBox="0 0 39 25" fill="none" xmlns="http://www.w3.org/2000/svg">
<path d="M31.8703 10.5208C31.8703 10.4167 31.8877 10.3125 31.8877 10.2083C31.8877 4.56597 27.3783 0 21.8156 0C17.8025 0 14.3551 2.37847 12.7359 5.81597C12.0308 5.46007 11.2386 5.25174 10.4029 5.25174C7.83482 5.25174 5.6933 7.15278 5.28415 9.63542C2.20246 10.6944 0 13.6372 0 17.1007C0 21.4583 3.49085 25 7.7913 25H16.7143V18.0556H12.5183L19.5 10.7899L26.4817 18.0469H22.2857V24.9913H31.8877C35.8225 24.9913 39 21.7361 39 17.7517C39 13.7674 35.8051 10.5295 31.8703 10.5208Z" fill="#00B05B"/>
</svg>
